<svg width="215" height="229" viewBox="0 0 215 229" fill="none" xmlns="http://www.w3.org/2000/svg">
<g filter="url(#filter0_d_1_650)">
<rect x="30" y="20.8137" width="155" height="168.152" rx="10" fill="white"/>
</g>
<path d="M85.54 59C85.4467 59 85.372 58.972 85.316 58.916C85.26 58.8507 85.232 58.7713 85.232 58.678V49.536C85.232 49.4333 85.26 49.354 85.316 49.298C85.372 49.2327 85.4467 49.2 85.54 49.2H88.704C90.1133 49.2 91.1307 49.5173 91.756 50.152C92.3813 50.7773 92.7033 51.7247 92.722 52.994C92.7313 53.2647 92.736 53.6287 92.736 54.086C92.736 54.5433 92.7313 54.912 92.722 55.192C92.7033 56.0787 92.5587 56.802 92.288 57.362C92.0267 57.9127 91.6113 58.3233 91.042 58.594C90.4727 58.8647 89.7167 59 88.774 59H85.54ZM88.704 57.838C89.3573 57.838 89.8753 57.7493 90.258 57.572C90.65 57.3853 90.93 57.1007 91.098 56.718C91.2753 56.326 91.3733 55.7987 91.392 55.136C91.4107 54.576 91.42 54.226 91.42 54.086C91.42 53.9367 91.4107 53.5913 91.392 53.05C91.3733 52.1167 91.1493 51.4353 90.72 51.006C90.3 50.5673 89.6047 50.348 88.634 50.348H86.548V57.838H88.704ZM97.2047 59.14C96.7473 59.14 96.3227 59.0467 95.9307 58.86C95.548 58.6733 95.24 58.4213 95.0067 58.104C94.7827 57.7773 94.6707 57.418 94.6707 57.026C94.6707 56.41 94.9227 55.906 95.4267 55.514C95.9307 55.122 96.6167 54.8607 97.4847 54.73L99.5847 54.436V54.03C99.5847 53.0687 99.0293 52.588 97.9187 52.588C97.4893 52.588 97.144 52.6767 96.8827 52.854C96.6213 53.022 96.43 53.2227 96.3087 53.456C96.2713 53.5493 96.2293 53.6147 96.1827 53.652C96.1453 53.68 96.0893 53.694 96.0147 53.694H95.4687C95.3847 53.694 95.31 53.666 95.2447 53.61C95.1887 53.5447 95.1607 53.47 95.1607 53.386C95.1607 53.1713 95.2587 52.924 95.4547 52.644C95.66 52.3547 95.9727 52.1073 96.3927 51.902C96.8127 51.6873 97.326 51.58 97.9327 51.58C98.978 51.58 99.7247 51.8227 100.173 52.308C100.63 52.7933 100.859 53.4 100.859 54.128V58.678C100.859 58.7713 100.826 58.8507 100.761 58.916C100.705 58.972 100.63 59 100.537 59H99.9207C99.8273 59 99.7527 58.972 99.6967 58.916C99.6407 58.8507 99.6127 58.7713 99.6127 58.678V58.062C99.4073 58.37 99.1087 58.6267 98.7167 58.832C98.3247 59.0373 97.8207 59.14 97.2047 59.14ZM97.4847 58.118C98.1007 58.118 98.6047 57.9173 98.9967 57.516C99.3887 57.1147 99.5847 56.5313 99.5847 55.766V55.374L97.9467 55.612C97.2747 55.7053 96.766 55.864 96.4207 56.088C96.0753 56.312 95.9027 56.592 95.9027 56.928C95.9027 57.3107 96.0567 57.6047 96.3647 57.81C96.682 58.0153 97.0553 58.118 97.4847 58.118ZM103.596 50.348C103.503 50.348 103.423 50.32 103.358 50.264C103.302 50.1987 103.274 50.1193 103.274 50.026V49.298C103.274 49.2047 103.302 49.1253 103.358 49.06C103.423 48.9947 103.503 48.962 103.596 48.962H104.422C104.515 48.962 104.595 48.9947 104.66 49.06C104.725 49.1253 104.758 49.2047 104.758 49.298V50.026C104.758 50.1193 104.725 50.1987 104.66 50.264C104.595 50.32 104.515 50.348 104.422 50.348H103.596ZM103.708 59C103.615 59 103.535 58.972 103.47 58.916C103.414 58.8507 103.386 58.7713 103.386 58.678V52.042C103.386 51.9487 103.414 51.874 103.47 51.818C103.535 51.7527 103.615 51.72 103.708 51.72H104.324C104.417 51.72 104.492 51.7527 104.548 51.818C104.613 51.874 104.646 51.9487 104.646 52.042V58.678C104.646 58.7713 104.613 58.8507 104.548 58.916C104.492 58.972 104.417 59 104.324 59H103.708ZM107.585 59C107.492 59 107.413 58.972 107.347 58.916C107.291 58.8507 107.263 58.7713 107.263 58.678V49.382C107.263 49.2793 107.291 49.2 107.347 49.144C107.413 49.088 107.492 49.06 107.585 49.06H108.201C108.295 49.06 108.369 49.0927 108.425 49.158C108.491 49.214 108.523 49.2887 108.523 49.382V58.678C108.523 58.7713 108.491 58.8507 108.425 58.916C108.369 58.972 108.295 59 108.201 59H107.585ZM112.4 61.66C112.316 61.66 112.246 61.632 112.19 61.576C112.134 61.52 112.106 61.4547 112.106 61.38C112.106 61.352 112.13 61.268 112.176 61.128L113.268 58.566L110.594 52.252C110.538 52.14 110.51 52.0607 110.51 52.014C110.52 51.93 110.552 51.86 110.608 51.804C110.664 51.748 110.73 51.72 110.804 51.72H111.448C111.598 51.72 111.71 51.7947 111.784 51.944L113.94 57.096L116.152 51.944C116.227 51.7947 116.339 51.72 116.488 51.72H117.118C117.193 51.72 117.258 51.748 117.314 51.804C117.37 51.86 117.398 51.9253 117.398 52C117.398 52.0653 117.375 52.1493 117.328 52.252L113.366 61.436C113.32 61.5107 113.268 61.5667 113.212 61.604C113.166 61.6413 113.1 61.66 113.016 61.66H112.4ZM126.554 59.14C125.341 59.14 124.403 58.8227 123.74 58.188C123.078 57.544 122.728 56.578 122.69 55.29C122.681 55.01 122.676 54.6133 122.676 54.1C122.676 53.5867 122.681 53.1947 122.69 52.924C122.728 51.6547 123.087 50.6933 123.768 50.04C124.459 49.3867 125.388 49.06 126.554 49.06C127.721 49.06 128.645 49.3867 129.326 50.04C130.008 50.6933 130.367 51.6547 130.404 52.924C130.423 53.4653 130.432 53.8573 130.432 54.1C130.432 54.3333 130.423 54.73 130.404 55.29C130.367 56.578 130.017 57.544 129.354 58.188C128.701 58.8227 127.768 59.14 126.554 59.14ZM126.554 57.978C127.301 57.978 127.898 57.754 128.346 57.306C128.794 56.8487 129.037 56.1533 129.074 55.22C129.093 54.66 129.102 54.2867 129.102 54.1C129.102 53.8947 129.093 53.5213 129.074 52.98C129.037 52.0467 128.794 51.3513 128.346 50.894C127.898 50.4367 127.301 50.208 126.554 50.208C125.808 50.208 125.206 50.4367 124.748 50.894C124.3 51.3513 124.062 52.0467 124.034 52.98C124.025 53.2507 124.02 53.624 124.02 54.1C124.02 54.5667 124.025 54.94 124.034 55.22C124.062 56.1533 124.3 56.8487 124.748 57.306C125.196 57.754 125.798 57.978 126.554 57.978ZM133.142 59C133.048 59 132.969 58.972 132.904 58.916C132.848 58.8507 132.82 58.7713 132.82 58.678V52.056C132.82 51.9627 132.848 51.8833 132.904 51.818C132.969 51.7527 133.048 51.72 133.142 51.72H133.73C133.832 51.72 133.912 51.7527 133.968 51.818C134.033 51.874 134.066 51.9533 134.066 52.056V52.672C134.448 52.0373 135.097 51.72 136.012 51.72H136.558C136.66 51.72 136.74 51.748 136.796 51.804C136.852 51.86 136.88 51.9393 136.88 52.042V52.56C136.88 52.6533 136.852 52.7327 136.796 52.798C136.74 52.854 136.66 52.882 136.558 52.882H135.76C135.246 52.882 134.84 53.0313 134.542 53.33C134.252 53.6287 134.108 54.0347 134.108 54.548V58.678C134.108 58.7713 134.075 58.8507 134.01 58.916C133.944 58.972 133.865 59 133.772 59H133.142ZM141.093 59.14C140.113 59.14 139.375 58.8227 138.881 58.188C138.395 57.5533 138.134 56.7507 138.097 55.78L138.083 55.36L138.097 54.94C138.134 53.9787 138.4 53.1807 138.895 52.546C139.389 51.902 140.122 51.58 141.093 51.58C142.063 51.58 142.819 51.9253 143.361 52.616V49.382C143.361 49.2887 143.389 49.214 143.445 49.158C143.51 49.0927 143.589 49.06 143.683 49.06H144.313C144.406 49.06 144.481 49.0927 144.537 49.158C144.602 49.214 144.635 49.2887 144.635 49.382V58.678C144.635 58.7713 144.602 58.8507 144.537 58.916C144.481 58.972 144.406 59 144.313 59H143.711C143.617 59 143.543 58.972 143.487 58.916C143.431 58.8507 143.403 58.7713 143.403 58.678V58.076C142.871 58.7853 142.101 59.14 141.093 59.14ZM141.359 58.048C142.012 58.048 142.502 57.8333 142.829 57.404C143.155 56.9653 143.333 56.4473 143.361 55.85C143.37 55.7473 143.375 55.57 143.375 55.318C143.375 55.0567 143.37 54.8747 143.361 54.772C143.342 54.2027 143.16 53.7127 142.815 53.302C142.479 52.882 141.993 52.672 141.359 52.672C140.687 52.672 140.197 52.882 139.889 53.302C139.581 53.722 139.413 54.2727 139.385 54.954L139.371 55.36C139.371 57.152 140.033 58.048 141.359 58.048ZM150.129 59.14C149.177 59.14 148.417 58.846 147.847 58.258C147.278 57.6607 146.965 56.8487 146.909 55.822L146.895 55.346L146.909 54.884C146.965 53.876 147.278 53.0733 147.847 52.476C148.417 51.8787 149.177 51.58 150.129 51.58C151.156 51.58 151.949 51.9067 152.509 52.56C153.079 53.2133 153.363 54.1 153.363 55.22V55.472C153.363 55.5653 153.331 55.6447 153.265 55.71C153.209 55.766 153.135 55.794 153.041 55.794H148.183V55.92C148.211 56.5267 148.398 57.0447 148.743 57.474C149.089 57.9033 149.546 58.118 150.115 58.118C150.554 58.118 150.909 58.034 151.179 57.866C151.459 57.6887 151.669 57.5067 151.809 57.32C151.893 57.208 151.959 57.1427 152.005 57.124C152.052 57.096 152.131 57.082 152.243 57.082H152.859C152.943 57.082 153.013 57.1053 153.069 57.152C153.135 57.1987 153.167 57.2593 153.167 57.334C153.167 57.5393 153.041 57.7867 152.789 58.076C152.537 58.3653 152.178 58.6173 151.711 58.832C151.254 59.0373 150.727 59.14 150.129 59.14ZM152.089 54.842V54.8C152.089 54.1467 151.912 53.6147 151.557 53.204C151.203 52.7933 150.727 52.588 150.129 52.588C149.523 52.588 149.047 52.7933 148.701 53.204C148.356 53.6147 148.183 54.1467 148.183 54.8V54.842H152.089ZM155.888 59C155.794 59 155.715 58.972 155.65 58.916C155.594 58.8507 155.566 58.7713 155.566 58.678V52.056C155.566 51.9627 155.594 51.8833 155.65 51.818C155.715 51.7527 155.794 51.72 155.888 51.72H156.476C156.578 51.72 156.658 51.7527 156.714 51.818C156.779 51.874 156.812 51.9533 156.812 52.056V52.672C157.194 52.0373 157.843 51.72 158.758 51.72H159.304C159.406 51.72 159.486 51.748 159.542 51.804C159.598 51.86 159.626 51.9393 159.626 52.042V52.56C159.626 52.6533 159.598 52.7327 159.542 52.798C159.486 52.854 159.406 52.882 159.304 52.882H158.506C157.992 52.882 157.586 53.0313 157.288 53.33C156.998 53.6287 156.854 54.0347 156.854 54.548V58.678C156.854 58.7713 156.821 58.8507 156.756 58.916C156.69 58.972 156.611 59 156.518 59H155.888Z" fill="#8480AE"/>
<path d="M50.208 110C49.9947 110 49.8133 109.925 49.664 109.776C49.5147 109.627 49.44 109.445 49.44 109.232V107.568C49.44 106.971 49.7067 106.469 50.24 106.064L55.232 101.104C56.7467 99.9093 57.9093 98.9387 58.72 98.192C59.552 97.424 60.1707 96.72 60.576 96.08C60.9813 95.44 61.184 94.8107 61.184 94.192C61.184 93.1893 60.9173 92.4 60.384 91.824C59.8507 91.248 59.04 90.96 57.952 90.96C56.8853 90.96 56.0427 91.28 55.424 91.92C54.8267 92.5387 54.4533 93.3493 54.304 94.352C54.24 94.608 54.112 94.8 53.92 94.928C53.7493 95.0347 53.5573 95.088 53.344 95.088H50.464C50.272 95.088 50.112 95.024 49.984 94.896C49.856 94.768 49.792 94.608 49.792 94.416C49.8347 93.1573 50.176 91.984 50.816 90.896C51.4773 89.7867 52.416 88.9013 53.632 88.24C54.848 87.5573 56.2773 87.216 57.92 87.216C59.6267 87.216 61.0773 87.5147 62.272 88.112C63.4667 88.688 64.3627 89.488 64.96 90.512C65.5573 91.536 65.856 92.6987 65.856 94C65.856 95.4293 65.4507 96.7307 64.64 97.904C63.8507 99.056 62.6133 100.293 60.928 101.616L56.48 106.128H65.536C65.7707 106.128 65.9627 106.203 66.112 106.352C66.2613 106.501 66.336 106.693 66.336 106.928V109.232C66.336 109.467 66.2613 109.659 66.112 109.808C65.9627 109.936 65.7707 110 65.536 110H50.208ZM78.8718 110.32C76.0131 110.32 73.8798 109.531 72.4718 107.952C71.0851 106.373 70.3278 104.304 70.1998 101.744C70.1784 101.168 70.1678 100.187 70.1678 98.8C70.1678 97.392 70.1784 96.3893 70.1998 95.792C70.3064 93.2747 71.0744 91.2267 72.5038 89.648C73.9331 88.0693 76.0558 87.28 78.8718 87.28C81.6878 87.28 83.8104 88.0693 85.2397 89.648C86.6691 91.2267 87.4371 93.2747 87.5438 95.792C87.5864 96.9867 87.6078 97.9893 87.6078 98.8C87.6078 99.6107 87.5864 100.592 87.5438 101.744C87.4158 104.304 86.6478 106.373 85.2397 107.952C83.8531 109.531 81.7304 110.32 78.8718 110.32ZM78.8718 106.576C80.1944 106.576 81.1864 106.149 81.8478 105.296C82.5091 104.421 82.8611 103.184 82.9038 101.584C82.9251 100.965 82.9358 100.016 82.9358 98.736C82.9358 97.456 82.9251 96.528 82.9038 95.952C82.8611 94.3947 82.5091 93.1787 81.8478 92.304C81.1864 91.4293 80.1944 90.9813 78.8718 90.96C77.5491 90.9813 76.5571 91.4293 75.8958 92.304C75.2344 93.1787 74.8824 94.3947 74.8398 95.952C74.8184 96.528 74.8078 97.456 74.8078 98.736C74.8078 100.016 74.8184 100.965 74.8398 101.584C74.8824 103.184 75.2344 104.421 75.8958 105.296C76.5571 106.149 77.5491 106.576 78.8718 106.576ZM100.466 110.32C97.6068 110.32 95.4735 109.531 94.0655 107.952C92.6788 106.373 91.9215 104.304 91.7935 101.744C91.7722 101.168 91.7615 100.187 91.7615 98.8C91.7615 97.392 91.7722 96.3893 91.7935 95.792C91.9002 93.2747 92.6682 91.2267 94.0975 89.648C95.5268 88.0693 97.6495 87.28 100.466 87.28C103.282 87.28 105.404 88.0693 106.833 89.648C108.263 91.2267 109.031 93.2747 109.138 95.792C109.18 96.9867 109.202 97.9893 109.202 98.8C109.202 99.6107 109.18 100.592 109.138 101.744C109.01 104.304 108.242 106.373 106.833 107.952C105.447 109.531 103.324 110.32 100.466 110.32ZM100.466 106.576C101.788 106.576 102.78 106.149 103.442 105.296C104.103 104.421 104.455 103.184 104.498 101.584C104.519 100.965 104.53 100.016 104.53 98.736C104.53 97.456 104.519 96.528 104.498 95.952C104.455 94.3947 104.103 93.1787 103.442 92.304C102.78 91.4293 101.788 90.9813 100.466 90.96C99.1428 90.9813 98.1508 91.4293 97.4895 92.304C96.8282 93.1787 96.4762 94.3947 96.4335 95.952C96.4122 96.528 96.4015 97.456 96.4015 98.736C96.4015 100.016 96.4122 100.965 96.4335 101.584C96.4762 103.184 96.8282 104.421 97.4895 105.296C98.1508 106.149 99.1428 106.576 100.466 106.576Z" fill="#242F57"/>
<rect x="48" y="38.8301" width="30" height="30.0266" rx="7.5" fill="#FDD76E" fill-opacity="0.3"/>
<path fill-rule="evenodd" clip-rule="evenodd" d="M59.7503 47.5878C59.4354 47.5878 59.1388 47.7361 58.95 47.9881L57.375 50.09V58.848C57.375 59.539 57.9346 60.0991 58.625 60.0991H67.375C68.0654 60.0991 68.625 59.539 68.625 58.848V50.09L67.05 47.9881C66.8612 47.7361 66.5646 47.5878 66.2497 47.5878H59.7503Z" stroke="#F4A700" stroke-linecap="round" stroke-linejoin="round"/>
<path d="M57.375 50.0898H68.625" stroke="#F4A700" stroke-linecap="round" stroke-linejoin="round"/>
<path d="M65.5 52.5925C65.5 53.9745 64.3807 55.0948 63 55.0948C61.6193 55.0948 60.5 53.9745 60.5 52.5925" stroke="#F4A700" stroke-linecap="round" stroke-linejoin="round"/>
<rect x="48" y="151.978" width="4.45456" height="15.6045" fill="#FFC800" fill-opacity="0.24"/>
<rect x="56.9091" y="151.978" width="4.45455" height="11.1467" fill="#FFC800" fill-opacity="0.4"/>
<rect x="65.8183" y="151.978" width="4.45456" height="6.68799" fill="#FFC800" fill-opacity="0.56"/>
<rect x="83.6364" y="135.258" width="4.45456" height="16.7195" fill="#FFC800" fill-opacity="0.72"/>
<rect x="92.5454" y="125.227" width="4.45454" height="26.7512" fill="#FFC800" fill-opacity="0.88"/>
<rect x="74.7271" y="145.289" width="4.45456" height="6.68848" fill="#FFC800" fill-opacity="0.64"/>
<defs>
<filter id="filter0_d_1_650" x="0" y="0.813721" width="215" height="228.152" filterUnits="userSpaceOnUse" color-interpolation-filters="sRGB">
<feFlood flood-opacity="0" result="BackgroundImageFix"/>
<feColorMatrix in="SourceAlpha" type="matrix" values="0 0 0 0 0 0 0 0 0 0 0 0 0 0 0 0 0 0 127 0" result="hardAlpha"/>
<feOffset dy="10"/>
<feGaussianBlur stdDeviation="15"/>
<feColorMatrix type="matrix" values="0 0 0 0 0.517647 0 0 0 0 0.501961 0 0 0 0 0.682353 0 0 0 0.1 0"/>
<feBlend mode="normal" in2="BackgroundImageFix" result="effect1_dropShadow_1_650"/>
<feBlend mode="normal" in="SourceGraphic" in2="effect1_dropShadow_1_650" result="shape"/>
</filter>
</defs>
</svg>
