<svg width="148" height="153" viewBox="0 0 148 153" fill="none" xmlns="http://www.w3.org/2000/svg">
<g filter="url(#filter0_d_1_1147)">
<rect x="30" y="20.4265" width="87.4902" height="92.4982" rx="10" fill="white"/>
</g>
<path d="M57.1 40C57.0267 40 56.97 39.98 56.93 39.94C56.89 39.8933 56.87 39.8367 56.87 39.77V33.24C56.87 33.1667 56.89 33.11 56.93 33.07C56.97 33.0233 57.0267 33 57.1 33H59.37C60.0567 33 60.61 33.1033 61.03 33.31C61.45 33.5167 61.7567 33.8233 61.95 34.23C62.1433 34.63 62.2433 35.1233 62.25 35.71C62.2567 36.01 62.26 36.2733 62.26 36.5C62.26 36.7267 62.2567 36.9867 62.25 37.28C62.2367 37.8933 62.1333 38.4033 61.94 38.81C61.7533 39.21 61.4533 39.51 61.04 39.71C60.6333 39.9033 60.0933 40 59.42 40H57.1ZM57.85 39.15H59.37C59.83 39.15 60.1967 39.0867 60.47 38.96C60.7433 38.8333 60.94 38.63 61.06 38.35C61.1867 38.07 61.2533 37.7 61.26 37.24C61.2733 37.04 61.28 36.8667 61.28 36.72C61.28 36.5667 61.28 36.4167 61.28 36.27C61.28 36.1167 61.2733 35.9433 61.26 35.75C61.2467 35.1033 61.0933 34.6267 60.8 34.32C60.5067 34.0067 60.0133 33.85 59.32 33.85H57.85V39.15ZM65.5845 40.1C65.2512 40.1 64.9479 40.0333 64.6745 39.9C64.4012 39.7667 64.1812 39.5867 64.0145 39.36C63.8479 39.1333 63.7645 38.8767 63.7645 38.59C63.7645 38.13 63.9512 37.7633 64.3245 37.49C64.6979 37.2167 65.1845 37.0367 65.7845 36.95L67.2745 36.74V36.45C67.2745 36.13 67.1812 35.88 66.9945 35.7C66.8145 35.52 66.5179 35.43 66.1045 35.43C65.8045 35.43 65.5612 35.49 65.3745 35.61C65.1945 35.73 65.0679 35.8833 64.9945 36.07C64.9545 36.17 64.8845 36.22 64.7845 36.22H64.3345C64.2612 36.22 64.2045 36.2 64.1645 36.16C64.1312 36.1133 64.1145 36.06 64.1145 36C64.1145 35.9 64.1512 35.7767 64.2245 35.63C64.3045 35.4833 64.4245 35.34 64.5845 35.2C64.7445 35.06 64.9479 34.9433 65.1945 34.85C65.4479 34.75 65.7545 34.7 66.1145 34.7C66.5145 34.7 66.8512 34.7533 67.1245 34.86C67.3979 34.96 67.6112 35.0967 67.7645 35.27C67.9245 35.4433 68.0379 35.64 68.1045 35.86C68.1779 36.08 68.2145 36.3033 68.2145 36.53V39.77C68.2145 39.8367 68.1912 39.8933 68.1445 39.94C68.1045 39.98 68.0512 40 67.9845 40H67.5245C67.4512 40 67.3945 39.98 67.3545 39.94C67.3145 39.8933 67.2945 39.8367 67.2945 39.77V39.34C67.2079 39.46 67.0912 39.58 66.9445 39.7C66.7979 39.8133 66.6145 39.91 66.3945 39.99C66.1745 40.0633 65.9045 40.1 65.5845 40.1ZM65.7945 39.35C66.0679 39.35 66.3179 39.2933 66.5445 39.18C66.7712 39.06 66.9479 38.8767 67.0745 38.63C67.2079 38.3833 67.2745 38.0733 67.2745 37.7V37.42L66.1145 37.59C65.6412 37.6567 65.2845 37.77 65.0445 37.93C64.8045 38.0833 64.6845 38.28 64.6845 38.52C64.6845 38.7067 64.7379 38.8633 64.8445 38.99C64.9579 39.11 65.0979 39.2 65.2645 39.26C65.4379 39.32 65.6145 39.35 65.7945 39.35ZM70.3821 40C70.3154 40 70.2588 39.98 70.2121 39.94C70.1721 39.8933 70.1521 39.8367 70.1521 39.77V35.03C70.1521 34.9633 70.1721 34.91 70.2121 34.87C70.2588 34.8233 70.3154 34.8 70.3821 34.8H70.8621C70.9288 34.8 70.9821 34.8233 71.0221 34.87C71.0621 34.91 71.0821 34.9633 71.0821 35.03V39.77C71.0821 39.8367 71.0621 39.8933 71.0221 39.94C70.9821 39.98 70.9288 40 70.8621 40H70.3821ZM70.3021 33.83C70.2354 33.83 70.1788 33.81 70.1321 33.77C70.0921 33.7233 70.0721 33.6667 70.0721 33.6V33.06C70.0721 32.9933 70.0921 32.94 70.1321 32.9C70.1788 32.8533 70.2354 32.83 70.3021 32.83H70.9321C70.9988 32.83 71.0521 32.8533 71.0921 32.9C71.1388 32.94 71.1621 32.9933 71.1621 33.06V33.6C71.1621 33.6667 71.1388 33.7233 71.0921 33.77C71.0521 33.81 70.9988 33.83 70.9321 33.83H70.3021ZM73.314 40C73.2473 40 73.1907 39.98 73.144 39.94C73.104 39.8933 73.084 39.8367 73.084 39.77V33.13C73.084 33.0633 73.104 33.01 73.144 32.97C73.1907 32.9233 73.2473 32.9 73.314 32.9H73.784C73.8573 32.9 73.914 32.9233 73.954 32.97C73.994 33.01 74.014 33.0633 74.014 33.13V39.77C74.014 39.8367 73.994 39.8933 73.954 39.94C73.914 39.98 73.8573 40 73.784 40H73.314ZM76.9156 41.9C76.8623 41.9 76.8156 41.88 76.7756 41.84C76.7356 41.8 76.7156 41.7533 76.7156 41.7C76.7156 41.6733 76.719 41.6467 76.7256 41.62C76.7323 41.5933 76.7456 41.56 76.7656 41.52L77.5356 39.69L75.6256 35.18C75.5923 35.1 75.5756 35.0433 75.5756 35.01C75.5756 34.95 75.5956 34.9 75.6356 34.86C75.6756 34.82 75.7256 34.8 75.7856 34.8H76.2756C76.3423 34.8 76.3956 34.8167 76.4356 34.85C76.4756 34.8833 76.5023 34.9233 76.5156 34.97L78.0356 38.61L79.5956 34.97C79.6156 34.9233 79.6423 34.8833 79.6756 34.85C79.7156 34.8167 79.7723 34.8 79.8456 34.8H80.3156C80.3756 34.8 80.4256 34.82 80.4656 34.86C80.5056 34.9 80.5256 34.9467 80.5256 35C80.5256 35.0333 80.509 35.0933 80.4756 35.18L77.6356 41.73C77.6156 41.7767 77.5856 41.8167 77.5456 41.85C77.5123 41.8833 77.459 41.9 77.3856 41.9H76.9156ZM87.3409 40.1C86.7743 40.1 86.2876 40.0033 85.8809 39.81C85.4743 39.61 85.1609 39.3067 84.9409 38.9C84.7209 38.4867 84.5976 37.97 84.5709 37.35C84.5643 37.0567 84.5609 36.7767 84.5609 36.51C84.5609 36.2367 84.5643 35.9533 84.5709 35.66C84.5976 35.0467 84.7243 34.5367 84.9509 34.13C85.1843 33.7167 85.5043 33.41 85.9109 33.21C86.3243 33.0033 86.8009 32.9 87.3409 32.9C87.8876 32.9 88.3643 33.0033 88.7709 33.21C89.1843 33.41 89.5076 33.7167 89.7409 34.13C89.9743 34.5367 90.1009 35.0467 90.1209 35.66C90.1343 35.9533 90.1409 36.2367 90.1409 36.51C90.1409 36.7767 90.1343 37.0567 90.1209 37.35C90.1009 37.97 89.9776 38.4867 89.7509 38.9C89.5309 39.3067 89.2176 39.61 88.8109 39.81C88.4043 40.0033 87.9143 40.1 87.3409 40.1ZM87.3409 39.25C87.8543 39.25 88.2709 39.0967 88.5909 38.79C88.9176 38.4833 89.0943 37.9867 89.1209 37.3C89.1343 37 89.1409 36.7333 89.1409 36.5C89.1409 36.26 89.1343 35.9933 89.1209 35.7C89.1076 35.24 89.0209 34.8667 88.8609 34.58C88.7076 34.2933 88.5009 34.0833 88.2409 33.95C87.9809 33.8167 87.6809 33.75 87.3409 33.75C87.0143 33.75 86.7209 33.8167 86.4609 33.95C86.2009 34.0833 85.9909 34.2933 85.8309 34.58C85.6776 34.8667 85.5909 35.24 85.5709 35.7C85.5643 35.9933 85.5609 36.26 85.5609 36.5C85.5609 36.7333 85.5643 37 85.5709 37.3C85.5976 37.9867 85.7743 38.4833 86.1009 38.79C86.4276 39.0967 86.8409 39.25 87.3409 39.25ZM92.1985 40C92.1318 40 92.0752 39.98 92.0285 39.94C91.9885 39.8933 91.9685 39.8367 91.9685 39.77V35.04C91.9685 34.9733 91.9885 34.9167 92.0285 34.87C92.0752 34.8233 92.1318 34.8 92.1985 34.8H92.6585C92.7252 34.8 92.7818 34.8233 92.8285 34.87C92.8752 34.9167 92.8985 34.9733 92.8985 35.04V35.48C93.0318 35.2533 93.2152 35.0833 93.4485 34.97C93.6818 34.8567 93.9618 34.8 94.2885 34.8H94.6885C94.7552 34.8 94.8085 34.8233 94.8485 34.87C94.8885 34.91 94.9085 34.9633 94.9085 35.03V35.44C94.9085 35.5067 94.8885 35.56 94.8485 35.6C94.8085 35.64 94.7552 35.66 94.6885 35.66H94.0885C93.7285 35.66 93.4452 35.7667 93.2385 35.98C93.0318 36.1867 92.9285 36.47 92.9285 36.83V39.77C92.9285 39.8367 92.9052 39.8933 92.8585 39.94C92.8118 39.98 92.7552 40 92.6885 40H92.1985ZM98.0599 40.1C97.6933 40.1 97.3766 40.0367 97.1099 39.91C96.8433 39.7767 96.6233 39.6 96.4499 39.38C96.2833 39.1533 96.1566 38.8967 96.0699 38.61C95.9899 38.3233 95.9433 38.02 95.9299 37.7C95.9233 37.5933 95.9199 37.4933 95.9199 37.4C95.9199 37.3067 95.9233 37.2067 95.9299 37.1C95.9433 36.7867 95.9899 36.4867 96.0699 36.2C96.1566 35.9133 96.2833 35.6567 96.4499 35.43C96.6233 35.2033 96.8433 35.0267 97.1099 34.9C97.3766 34.7667 97.6933 34.7 98.0599 34.7C98.4533 34.7 98.7799 34.77 99.0399 34.91C99.2999 35.05 99.5133 35.2233 99.6799 35.43V33.13C99.6799 33.0633 99.6999 33.01 99.7399 32.97C99.7866 32.9233 99.8433 32.9 99.9099 32.9H100.39C100.457 32.9 100.51 32.9233 100.55 32.97C100.597 33.01 100.62 33.0633 100.62 33.13V39.77C100.62 39.8367 100.597 39.8933 100.55 39.94C100.51 39.98 100.457 40 100.39 40H99.9399C99.8666 40 99.8099 39.98 99.7699 39.94C99.7299 39.8933 99.7099 39.8367 99.7099 39.77V39.35C99.5433 39.5633 99.3266 39.7433 99.0599 39.89C98.7933 40.03 98.4599 40.1 98.0599 40.1ZM98.2699 39.29C98.6033 39.29 98.8699 39.2133 99.0699 39.06C99.2699 38.9067 99.4199 38.7133 99.5199 38.48C99.6199 38.24 99.6733 37.9967 99.6799 37.75C99.6866 37.6433 99.6899 37.5167 99.6899 37.37C99.6899 37.2167 99.6866 37.0867 99.6799 36.98C99.6733 36.7467 99.6166 36.5167 99.5099 36.29C99.4099 36.0633 99.2566 35.8767 99.0499 35.73C98.8499 35.5833 98.5899 35.51 98.2699 35.51C97.9299 35.51 97.6599 35.5867 97.4599 35.74C97.2599 35.8867 97.1166 36.0833 97.0299 36.33C96.9433 36.57 96.8933 36.83 96.8799 37.11C96.8733 37.3033 96.8733 37.4967 96.8799 37.69C96.8933 37.97 96.9433 38.2333 97.0299 38.48C97.1166 38.72 97.2599 38.9167 97.4599 39.07C97.6599 39.2167 97.9299 39.29 98.2699 39.29ZM104.677 40.1C103.991 40.1 103.444 39.89 103.037 39.47C102.631 39.0433 102.407 38.4633 102.367 37.73C102.361 37.6433 102.357 37.5333 102.357 37.4C102.357 37.26 102.361 37.1467 102.367 37.06C102.394 36.5867 102.504 36.1733 102.697 35.82C102.891 35.46 103.154 35.1833 103.487 34.99C103.827 34.7967 104.224 34.7 104.677 34.7C105.184 34.7 105.607 34.8067 105.947 35.02C106.294 35.2333 106.557 35.5367 106.737 35.93C106.917 36.3233 107.007 36.7833 107.007 37.31V37.48C107.007 37.5533 106.984 37.61 106.937 37.65C106.897 37.69 106.844 37.71 106.777 37.71H103.317C103.317 37.7167 103.317 37.73 103.317 37.75C103.317 37.77 103.317 37.7867 103.317 37.8C103.331 38.0733 103.391 38.33 103.497 38.57C103.604 38.8033 103.757 38.9933 103.957 39.14C104.157 39.2867 104.397 39.36 104.677 39.36C104.917 39.36 105.117 39.3233 105.277 39.25C105.437 39.1767 105.567 39.0967 105.667 39.01C105.767 38.9167 105.834 38.8467 105.867 38.8C105.927 38.7133 105.974 38.6633 106.007 38.65C106.041 38.63 106.094 38.62 106.167 38.62H106.647C106.714 38.62 106.767 38.64 106.807 38.68C106.854 38.7133 106.874 38.7633 106.867 38.83C106.861 38.93 106.807 39.0533 106.707 39.2C106.607 39.34 106.464 39.48 106.277 39.62C106.091 39.76 105.864 39.8767 105.597 39.97C105.331 40.0567 105.024 40.1 104.677 40.1ZM103.317 37.02H106.057V36.99C106.057 36.69 106.001 36.4233 105.887 36.19C105.781 35.9567 105.624 35.7733 105.417 35.64C105.211 35.5 104.964 35.43 104.677 35.43C104.391 35.43 104.144 35.5 103.937 35.64C103.737 35.7733 103.584 35.9567 103.477 36.19C103.371 36.4233 103.317 36.69 103.317 36.99V37.02ZM108.933 40C108.866 40 108.81 39.98 108.763 39.94C108.723 39.8933 108.703 39.8367 108.703 39.77V35.04C108.703 34.9733 108.723 34.9167 108.763 34.87C108.81 34.8233 108.866 34.8 108.933 34.8H109.393C109.46 34.8 109.516 34.8233 109.563 34.87C109.61 34.9167 109.633 34.9733 109.633 35.04V35.48C109.766 35.2533 109.95 35.0833 110.183 34.97C110.416 34.8567 110.696 34.8 111.023 34.8H111.423C111.49 34.8 111.543 34.8233 111.583 34.87C111.623 34.91 111.643 34.9633 111.643 35.03V35.44C111.643 35.5067 111.623 35.56 111.583 35.6C111.543 35.64 111.49 35.66 111.423 35.66H110.823C110.463 35.66 110.18 35.7667 109.973 35.98C109.766 36.1867 109.663 36.47 109.663 36.83V39.77C109.663 39.8367 109.64 39.8933 109.593 39.94C109.546 39.98 109.49 40 109.423 40H108.933Z" fill="#8480AE"/>
<path d="M37.38 72C37.2467 72 37.1333 71.9533 37.04 71.86C36.9467 71.7667 36.9 71.6533 36.9 71.52V70.5C36.9 70.38 36.9267 70.24 36.98 70.08C37.0467 69.9067 37.1867 69.7333 37.4 69.56L40.56 66.42C41.44 65.7267 42.1467 65.14 42.68 64.66C43.2267 64.1667 43.62 63.72 43.86 63.32C44.1133 62.9067 44.24 62.5 44.24 62.1C44.24 61.5 44.0733 61.0133 43.74 60.64C43.42 60.2667 42.9067 60.08 42.2 60.08C41.7333 60.08 41.34 60.18 41.02 60.38C40.7 60.5667 40.4467 60.82 40.26 61.14C40.0867 61.46 39.9667 61.8133 39.9 62.2C39.8733 62.3733 39.8 62.4933 39.68 62.56C39.56 62.6267 39.44 62.66 39.32 62.66H37.54C37.42 62.66 37.32 62.62 37.24 62.54C37.16 62.46 37.12 62.3667 37.12 62.26C37.1333 61.6867 37.2533 61.1333 37.48 60.6C37.7067 60.0533 38.0333 59.5733 38.46 59.16C38.9 58.7333 39.4333 58.3933 40.06 58.14C40.6867 57.8867 41.3933 57.76 42.18 57.76C43.2867 57.76 44.2 57.9467 44.92 58.32C45.6533 58.6933 46.2 59.2 46.56 59.84C46.9333 60.48 47.12 61.2 47.12 62C47.12 62.6267 47 63.2067 46.76 63.74C46.52 64.26 46.1733 64.7667 45.72 65.26C45.2667 65.74 44.72 66.2333 44.08 66.74L41.24 69.62H46.94C47.0867 69.62 47.2 69.6667 47.28 69.76C47.3733 69.84 47.42 69.9533 47.42 70.1V71.52C47.42 71.6533 47.3733 71.7667 47.28 71.86C47.2 71.9533 47.0867 72 46.94 72H37.38ZM55.4428 72.2C54.4961 72.2 53.6895 72.06 53.0228 71.78C52.3561 71.5 51.8095 71.1133 51.3828 70.62C50.9561 70.1267 50.6361 69.56 50.4228 68.92C50.2095 68.2667 50.0828 67.5733 50.0428 66.84C50.0295 66.48 50.0161 66.0867 50.0028 65.66C50.0028 65.22 50.0028 64.78 50.0028 64.34C50.0161 63.9 50.0295 63.4933 50.0428 63.12C50.0695 62.3867 50.1961 61.7 50.4228 61.06C50.6495 60.4067 50.9761 59.84 51.4028 59.36C51.8428 58.88 52.3961 58.5 53.0628 58.22C53.7295 57.94 54.5228 57.8 55.4428 57.8C56.3761 57.8 57.1761 57.94 57.8428 58.22C58.5095 58.5 59.0561 58.88 59.4828 59.36C59.9228 59.84 60.2495 60.4067 60.4628 61.06C60.6895 61.7 60.8161 62.3867 60.8428 63.12C60.8695 63.4933 60.8828 63.9 60.8828 64.34C60.8828 64.78 60.8828 65.22 60.8828 65.66C60.8828 66.0867 60.8695 66.48 60.8428 66.84C60.8161 67.5733 60.6961 68.2667 60.4828 68.92C60.2695 69.56 59.9495 70.1267 59.5228 70.62C59.0961 71.1133 58.5428 71.5 57.8628 71.78C57.1961 72.06 56.3895 72.2 55.4428 72.2ZM55.4428 69.9C56.3095 69.9 56.9428 69.62 57.3428 69.06C57.7561 68.4867 57.9695 67.7133 57.9828 66.74C58.0095 66.3533 58.0228 65.9667 58.0228 65.58C58.0228 65.18 58.0228 64.78 58.0228 64.38C58.0228 63.98 58.0095 63.6 57.9828 63.24C57.9695 62.2933 57.7561 61.5333 57.3428 60.96C56.9428 60.3733 56.3095 60.08 55.4428 60.08C54.5895 60.08 53.9561 60.3733 53.5428 60.96C53.1428 61.5333 52.9295 62.2933 52.9028 63.24C52.9028 63.6 52.8961 63.98 52.8828 64.38C52.8828 64.78 52.8828 65.18 52.8828 65.58C52.8961 65.9667 52.9028 66.3533 52.9028 66.74C52.9295 67.7133 53.1495 68.4867 53.5628 69.06C53.9761 69.62 54.6028 69.9 55.4428 69.9ZM69.0873 72.2C68.1407 72.2 67.334 72.06 66.6673 71.78C66.0007 71.5 65.454 71.1133 65.0273 70.62C64.6007 70.1267 64.2807 69.56 64.0673 68.92C63.854 68.2667 63.7273 67.5733 63.6873 66.84C63.674 66.48 63.6607 66.0867 63.6473 65.66C63.6473 65.22 63.6473 64.78 63.6473 64.34C63.6607 63.9 63.674 63.4933 63.6873 63.12C63.714 62.3867 63.8407 61.7 64.0673 61.06C64.294 60.4067 64.6207 59.84 65.0473 59.36C65.4873 58.88 66.0407 58.5 66.7073 58.22C67.374 57.94 68.1673 57.8 69.0873 57.8C70.0207 57.8 70.8207 57.94 71.4873 58.22C72.154 58.5 72.7007 58.88 73.1273 59.36C73.5673 59.84 73.894 60.4067 74.1073 61.06C74.334 61.7 74.4607 62.3867 74.4873 63.12C74.514 63.4933 74.5273 63.9 74.5273 64.34C74.5273 64.78 74.5273 65.22 74.5273 65.66C74.5273 66.0867 74.514 66.48 74.4873 66.84C74.4607 67.5733 74.3407 68.2667 74.1273 68.92C73.914 69.56 73.594 70.1267 73.1673 70.62C72.7407 71.1133 72.1873 71.5 71.5073 71.78C70.8407 72.06 70.034 72.2 69.0873 72.2ZM69.0873 69.9C69.954 69.9 70.5873 69.62 70.9873 69.06C71.4007 68.4867 71.614 67.7133 71.6273 66.74C71.654 66.3533 71.6673 65.9667 71.6673 65.58C71.6673 65.18 71.6673 64.78 71.6673 64.38C71.6673 63.98 71.654 63.6 71.6273 63.24C71.614 62.2933 71.4007 61.5333 70.9873 60.96C70.5873 60.3733 69.954 60.08 69.0873 60.08C68.234 60.08 67.6007 60.3733 67.1873 60.96C66.7873 61.5333 66.574 62.2933 66.5473 63.24C66.5473 63.6 66.5407 63.98 66.5273 64.38C66.5273 64.78 66.5273 65.18 66.5273 65.58C66.5407 65.9667 66.5473 66.3533 66.5473 66.74C66.574 67.7133 66.794 68.4867 67.2073 69.06C67.6207 69.62 68.2473 69.9 69.0873 69.9Z" fill="#242F57"/>
<rect x="36" y="29" width="16.9336" height="16.5173" rx="7.5" fill="#FDD76E" fill-opacity="0.3"/>
<path fill-rule="evenodd" clip-rule="evenodd" d="M42.8426 33.8175C42.5321 33.8175 42.2392 33.9618 42.0499 34.2079L41.2917 35.194V40.0116C41.2917 40.3917 41.6076 40.6998 41.9973 40.6998H46.9363C47.326 40.6998 47.6418 40.3917 47.6418 40.0116V35.194L46.8837 34.2079C46.6944 33.9618 46.4015 33.8175 46.091 33.8175H42.8426Z" stroke="#F4A700" stroke-linecap="round" stroke-linejoin="round"/>
<path d="M41.2917 35.1939H47.6418" stroke="#F4A700" stroke-linecap="round" stroke-linejoin="round"/>
<path d="M45.8779 36.5706C45.8779 37.3308 45.2461 37.9471 44.4668 37.9471C43.6874 37.9471 43.0557 37.3308 43.0557 36.5706" stroke="#F4A700" stroke-linecap="round" stroke-linejoin="round"/>
<rect x="40.1602" y="92.5783" width="2.51439" height="8.58384" fill="#FFC800" fill-opacity="0.24"/>
<rect x="45.1889" y="92.5783" width="2.51439" height="6.13168" fill="#FFC800" fill-opacity="0.4"/>
<rect x="50.2178" y="92.5783" width="2.51439" height="3.67898" fill="#FFC800" fill-opacity="0.56"/>
<rect x="60.2752" y="83.3811" width="2.51439" height="9.19718" fill="#FFC800" fill-opacity="0.72"/>
<rect x="65.304" y="77.8627" width="2.51438" height="14.7155" fill="#FFC800" fill-opacity="0.88"/>
<rect x="55.2463" y="88.899" width="2.51439" height="3.67925" fill="#FFC800" fill-opacity="0.64"/>
<defs>
<filter id="filter0_d_1_1147" x="0" y="0.426514" width="147.49" height="152.498" filterUnits="userSpaceOnUse" color-interpolation-filters="sRGB">
<feFlood flood-opacity="0" result="BackgroundImageFix"/>
<feColorMatrix in="SourceAlpha" type="matrix" values="0 0 0 0 0 0 0 0 0 0 0 0 0 0 0 0 0 0 127 0" result="hardAlpha"/>
<feOffset dy="10"/>
<feGaussianBlur stdDeviation="15"/>
<feColorMatrix type="matrix" values="0 0 0 0 0.517647 0 0 0 0 0.501961 0 0 0 0 0.682353 0 0 0 0.1 0"/>
<feBlend mode="normal" in2="BackgroundImageFix" result="effect1_dropShadow_1_1147"/>
<feBlend mode="normal" in="SourceGraphic" in2="effect1_dropShadow_1_1147" result="shape"/>
</filter>
</defs>
</svg>
