<svg width="16" height="16" viewBox="0 0 16 16" fill="none" xmlns="http://www.w3.org/2000/svg">
<g clip-path="url(#clip0_1_257)">
<path d="M4.62669 3.33327C4.62651 3.68689 4.48587 4.02596 4.23569 4.27588C3.98552 4.52581 3.64631 4.66611 3.29269 4.66594C2.93907 4.66576 2.6 4.52511 2.35007 4.27494C2.10015 4.02477 1.95985 3.68556 1.96002 3.33193C1.9602 2.97831 2.10084 2.63924 2.35102 2.38932C2.60119 2.1394 2.9404 1.99909 3.29402 1.99927C3.64764 1.99944 3.98671 2.14009 4.23664 2.39026C4.48656 2.64044 4.62687 2.97965 4.62669 3.33327ZM4.66669 5.65327H2.00002V13.9999H4.66669V5.65327ZM8.88002 5.65327H6.22669V13.9999H8.85336V9.61994C8.85336 7.17994 12.0334 6.95327 12.0334 9.61994V13.9999H14.6667V8.71327C14.6667 4.59994 9.96002 4.75327 8.85336 6.77327L8.88002 5.65327Z" fill="#1374F6"/>
</g>
<defs>
<clipPath id="clip0_1_257">
<rect width="16" height="16" fill="white"/>
</clipPath>
</defs>
</svg>
