<svg width="16" height="20" viewBox="0 0 16 20" fill="none" xmlns="http://www.w3.org/2000/svg">
<g clip-path="url(#clip0_1_254)">
<path d="M14.7747 4.71327C14.2657 4.99468 13.726 5.1795 13.1734 5.26161C13.7559 4.82613 14.1918 4.14078 14.4 3.33327C13.8534 3.73994 13.254 4.02494 12.6294 4.17911C12.2098 3.61792 11.6536 3.24574 11.0473 3.12043C10.4411 2.99511 9.81866 3.12368 9.27688 3.48615C8.7351 3.84862 8.30429 4.42467 8.05145 5.12477C7.7986 5.82486 7.73787 6.60976 7.8787 7.35744C6.77011 7.28798 5.68559 6.92787 4.69556 6.30049C3.70553 5.67311 2.83212 4.79248 2.13204 3.71577C1.88423 4.24781 1.75401 4.85263 1.7547 5.46827C1.7547 6.6766 2.2467 7.7441 2.9947 8.3691C2.55204 8.35169 2.11912 8.20226 1.73204 7.93327V7.9766C1.73217 8.78135 1.95495 9.56128 2.3626 10.1842C2.77025 10.807 3.33769 11.2345 3.9687 11.3941C3.55778 11.5333 3.12691 11.5538 2.7087 11.4541C2.88661 12.1468 3.23337 12.7526 3.70043 13.1867C4.16749 13.6208 4.73145 13.8614 5.31337 13.8749C4.73502 14.4427 4.07282 14.8624 3.36462 15.1101C2.65642 15.3577 1.91612 15.4285 1.18604 15.3183C2.4605 16.3428 3.9441 16.8867 5.45937 16.8849C10.588 16.8849 13.3927 11.5741 13.3927 6.96827C13.3927 6.81827 13.3894 6.6666 13.384 6.51827C13.9299 6.02508 14.4011 5.41412 14.7754 4.71411L14.7747 4.71327Z" fill="#1374F6"/>
</g>
<defs>
<clipPath id="clip0_1_254">
<rect width="16" height="20" fill="white"/>
</clipPath>
</defs>
</svg>
